<svg width="35" height="35" viewBox="0 0 35 35" fill="none" xmlns="http://www.w3.org/2000/svg">
<path d="M6.2269 34.4295C3.10773 34.4295 0.570801 31.8929 0.570801 28.7733V6.98186C0.570801 3.8631 3.10773 1.32568 6.2269 1.32568H28.0228C31.142 1.32568 33.6789 3.86228 33.6789 6.98186V28.7741C33.6789 31.8929 31.142 34.4303 28.0228 34.4303L6.2269 34.4295Z" fill="#00FFFF"/>
<path d="M28.0228 1.89639C30.8272 1.89639 33.1081 4.17778 33.1081 6.981V28.7741C33.1081 31.5773 30.8264 33.8587 28.0228 33.8587H6.22693C3.42253 33.8587 1.14166 31.5773 1.14166 28.7741V6.981C1.14166 4.17778 3.42334 1.89639 6.22693 1.89639H28.0228ZM28.0228 0.754883H6.22693C2.78809 0.754883 0 3.54261 0 6.981V28.7741C0 32.2124 2.78809 35.0002 6.22693 35.0002H28.022C31.4616 35.0002 34.2497 32.2124 34.2497 28.7741V6.981C34.2497 3.54261 31.4616 0.754883 28.0228 0.754883Z" fill="black"/>
<path d="M18.4452 4.83197H9.37801C9.15294 4.83197 8.97028 4.64932 8.97028 4.42428C8.97028 4.19924 9.15294 4.0166 9.37801 4.0166H18.4452C18.6703 4.0166 18.853 4.19924 18.853 4.42428C18.853 4.64932 18.6711 4.83197 18.4452 4.83197Z" fill="black"/>
<path d="M27.1152 31.6884H7.18596C5.05024 31.6884 3.31329 29.9509 3.31329 27.8163V7.88877C3.31329 5.75414 5.05024 4.0166 7.18596 4.0166C7.41103 4.0166 7.5937 4.19924 7.5937 4.42428C7.5937 4.64932 7.41103 4.83197 7.18596 4.83197C5.50038 4.83197 4.12876 6.20341 4.12876 7.88877V27.8154C4.12876 29.5008 5.50038 30.8722 7.18596 30.8722H27.1152C28.8008 30.8722 30.1724 29.5008 30.1724 27.8154V16.7477C30.1724 16.5227 30.3551 16.34 30.5802 16.34C30.8052 16.34 30.9879 16.5227 30.9879 16.7477V27.8154C30.9879 29.9509 29.2509 31.6884 27.1152 31.6884Z" fill="black"/>
<path d="M17.0287 19.8507C16.528 19.8507 16.0567 19.6567 15.7027 19.302C15.3488 18.9473 15.1539 18.4768 15.1539 17.9754C15.1539 17.4748 15.3488 17.0043 15.7036 16.6496L28.0318 4.32295H22.3602C21.3262 4.32295 20.4847 3.48231 20.4847 2.44761C20.4847 1.41291 21.3262 0.572272 22.3602 0.572272L34.4276 0.569824V12.638C34.4276 13.6727 33.586 14.5134 32.552 14.5134C31.518 14.5134 30.6764 13.6727 30.6764 12.638V6.98103L18.3546 19.3012C18.0007 19.6567 17.5302 19.8507 17.0287 19.8507Z" fill="white"/>
<path d="M33.829 1.14151V1.14314H33.8584V3.7523H33.8567V4.89381V12.6381C33.8567 13.3573 33.2712 13.9427 32.552 13.9427C31.8327 13.9427 31.2472 13.3573 31.2472 12.6381V8.35993V5.60399L29.2982 7.55272L17.951 18.8985C17.7047 19.1447 17.3769 19.2809 17.0287 19.2809C16.6805 19.2809 16.3527 19.1447 16.1064 18.8985C15.5975 18.3897 15.5975 17.5621 16.1064 17.0533L27.4602 5.70103L29.4092 3.7523H26.6529H22.3602C22.012 3.7523 21.6842 3.61614 21.4379 3.3699C21.1917 3.12366 21.0555 2.79588 21.0555 2.44772C21.0555 1.72857 21.641 1.14314 22.3602 1.14314H30.1056L31.2472 1.14151H33.829ZM34.9984 0H30.1056V0.00162983H22.3602C21.009 0.00162983 19.9138 1.09666 19.9138 2.44772C19.9138 3.79878 21.009 4.89381 22.3602 4.89381H26.6529L15.2991 16.2461C14.3433 17.2017 14.3433 18.7501 15.2991 19.7057C15.7769 20.1835 16.4032 20.4224 17.0287 20.4224C17.6541 20.4224 18.2812 20.1835 18.7583 19.7057L30.1056 8.35993V12.6381C30.1056 13.9892 31.2007 15.0842 32.552 15.0842C33.9032 15.0842 34.9984 13.9892 34.9984 12.6381V4.89381H35V0.00162983H34.9984V0Z" fill="black"/>
</svg>
