<svg width="40" height="40" viewBox="0 0 40 40" fill="none" xmlns="http://www.w3.org/2000/svg">
<path d="M27 8.90582C24.9037 7.58582 22.4875 6.8877 20.01 6.8877H20C12.77 6.89145 6.8906 12.7764 6.89435 20.0071C6.8956 22.3889 7.54247 24.7152 8.76747 26.7527L7.39497 32.6058L13.2475 31.2339C15.3106 32.4777 17.6275 33.1177 19.9862 33.1177C20.9606 33.1177 21.9419 33.0089 22.915 32.7877C26.3306 32.0121 29.2393 29.9533 31.1062 26.9896C34.9593 20.8721 33.1175 12.7596 27 8.90582Z" fill="url(#paint0_linear_11_16)"/>
<path d="M6.05939 34.8445C5.80001 34.9057 5.54439 34.8326 5.35626 34.6445C5.16876 34.4563 5.09564 34.2001 5.15626 33.9413L5.87001 30.8963L4.65314 30.6113L3.93939 33.6557C3.78001 34.3351 3.97939 35.0351 4.47314 35.5282C4.85439 35.9095 5.35939 36.1151 5.88314 36.1151C6.03689 36.1151 6.19189 36.0976 6.34564 36.0613L9.35626 35.3557L9.07064 34.1388L6.05939 34.8445Z" fill="url(#paint1_linear_11_16)"/>
<path d="M12.9581 33.2275L10.4281 33.8207L10.7131 35.0375L12.7981 34.5488C13.85 35.0707 14.9575 35.4782 16.0931 35.7607L16.395 34.5482C15.2769 34.27 14.1894 33.8607 13.1625 33.3325L12.9581 33.2275Z" fill="url(#paint2_linear_11_16)"/>
<path d="M6.18312 29.5602L6.77374 27.0408L6.66874 26.8365C6.14124 25.8077 5.73249 24.7171 5.45562 23.5952L4.24249 23.8946C4.52437 25.0358 4.93124 26.1465 5.45249 27.2002L4.96624 29.2752L6.18312 29.5602Z" fill="url(#paint3_linear_11_16)"/>
<path d="M19.9981 5.01295C20.7531 5.01295 21.5038 5.07357 22.2444 5.18482L22.4344 3.93232C20.8206 3.68857 19.1788 3.68857 17.565 3.93232L17.7544 5.1817C18.4869 5.0717 19.2356 5.01357 19.9981 5.01295Z" fill="url(#paint4_linear_11_16)"/>
<path d="M23.5944 5.45738C25.0512 5.81613 26.4512 6.39176 27.7475 7.17301L28.4037 6.08488C27.005 5.24051 25.4862 4.61301 23.9 4.22363L23.5944 5.45738Z" fill="url(#paint5_linear_11_16)"/>
<path d="M32.0712 11.1039L33.0806 10.3514C32.1143 9.04207 30.9575 7.8852 29.6481 6.91895L28.8918 7.93332C30.1331 8.84457 31.1962 9.91707 32.0712 11.1039Z" fill="url(#paint6_linear_11_16)"/>
<path d="M34.5538 16.3962L35.7738 16.0943C35.3831 14.5112 34.7556 12.9962 33.9125 11.6006L32.835 12.2462C33.6175 13.5418 34.1938 14.9418 34.5538 16.3962Z" fill="url(#paint7_linear_11_16)"/>
<path d="M36.0663 17.564L34.8244 17.7527C35.0494 19.2321 35.0557 20.7465 34.8294 22.2458L36.0663 22.4333C36.31 20.8196 36.31 19.1777 36.0663 17.564Z" fill="url(#paint8_linear_11_16)"/>
<path d="M28.8943 32.0698L29.6381 33.0786C30.9512 32.1129 32.1118 30.9561 33.0806 29.6461L32.0687 28.8936C31.1556 30.1342 30.0825 31.1961 28.8943 32.0698Z" fill="url(#paint9_linear_11_16)"/>
<path d="M32.8331 27.7506L33.9131 28.4025C34.7575 27.0038 35.385 25.485 35.7744 23.8988L34.5594 23.5981C34.2063 25.0275 33.6338 26.4269 32.8331 27.7506Z" fill="url(#paint10_linear_11_16)"/>
<path d="M23.6019 34.5463L23.9056 35.7725C25.4887 35.3819 27.0037 34.7544 28.3994 33.9119L27.7525 32.8325C26.4562 33.6125 25.0556 34.1875 23.6019 34.5463Z" fill="url(#paint11_linear_11_16)"/>
<path d="M17.755 34.8167L17.565 36.0673C19.1794 36.3111 20.8206 36.3111 22.435 36.0673L22.245 34.8154C20.7669 35.0392 19.2538 35.0442 17.755 34.8167Z" fill="url(#paint12_linear_11_16)"/>
<path d="M5.19248 22.2427C5.0806 21.5058 5.01998 20.7596 5.01935 20.0083C5.01873 19.2421 5.07685 18.4896 5.18748 17.7546L3.93373 17.564C3.68998 19.1783 3.68998 20.8196 3.93373 22.434L5.19248 22.2427Z" fill="url(#paint13_linear_11_16)"/>
<path d="M7.17502 12.2526L6.0869 11.6001C5.24315 12.9976 4.61565 14.5138 4.22565 16.0988L5.4569 16.4032C5.8219 14.9207 6.40565 13.5245 7.17502 12.2526Z" fill="url(#paint14_linear_11_16)"/>
<path d="M10.3525 6.91895C9.04311 7.8852 7.88623 9.04207 6.91998 10.3514L7.94061 11.1121C8.83311 9.90207 9.90311 8.83207 11.1125 7.93895L10.3525 6.91895Z" fill="url(#paint15_linear_11_16)"/>
<path d="M11.6013 6.08586L12.2531 7.17336C13.525 6.40273 14.9213 5.81898 16.4044 5.45273L16.1 4.22461C14.5156 4.61461 12.9988 5.24211 11.6013 6.08586Z" fill="url(#paint16_linear_11_16)"/>
<defs>
<linearGradient id="paint0_linear_11_16" x1="20.0069" y1="6.34332" x2="20.0069" y2="32.7808" gradientUnits="userSpaceOnUse">
<stop stop-color="white"/>
<stop offset="1" stop-color="white"/>
</linearGradient>
<linearGradient id="paint1_linear_11_16" x1="6.62064" y1="3.2582" x2="6.62064" y2="36.5338" gradientUnits="userSpaceOnUse">
<stop stop-color="#00FFFF"/>
<stop offset="1" stop-color="#00FFFF"/>
</linearGradient>
<linearGradient id="paint2_linear_11_16" x1="13.4119" y1="3.25818" x2="13.4119" y2="36.5338" gradientUnits="userSpaceOnUse">
<stop stop-color="#00FFFF"/>
<stop offset="1" stop-color="#00FFFF"/>
</linearGradient>
<linearGradient id="paint3_linear_11_16" x1="5.50812" y1="3.25833" x2="5.50812" y2="36.534" gradientUnits="userSpaceOnUse">
<stop stop-color="#00FFFF"/>
<stop offset="1" stop-color="#00FFFF"/>
</linearGradient>
<linearGradient id="paint4_linear_11_16" x1="20" y1="3.25795" x2="20" y2="36.5336" gradientUnits="userSpaceOnUse">
<stop stop-color="#00FFFF"/>
<stop offset="1" stop-color="#00FFFF"/>
</linearGradient>
<linearGradient id="paint5_linear_11_16" x1="25.9994" y1="3.25801" x2="25.9994" y2="36.5336" gradientUnits="userSpaceOnUse">
<stop stop-color="#00FFFF"/>
<stop offset="1" stop-color="#00FFFF"/>
</linearGradient>
<linearGradient id="paint6_linear_11_16" x1="30.9862" y1="3.25832" x2="30.9862" y2="36.5339" gradientUnits="userSpaceOnUse">
<stop stop-color="#00FFFF"/>
<stop offset="1" stop-color="#00FFFF"/>
</linearGradient>
<linearGradient id="paint7_linear_11_16" x1="34.305" y1="3.25809" x2="34.305" y2="36.5337" gradientUnits="userSpaceOnUse">
<stop stop-color="#00FFFF"/>
<stop offset="1" stop-color="#00FFFF"/>
</linearGradient>
<linearGradient id="paint8_linear_11_16" x1="35.5369" y1="3.25834" x2="35.5369" y2="36.534" gradientUnits="userSpaceOnUse">
<stop stop-color="#00FFFF"/>
<stop offset="1" stop-color="#00FFFF"/>
</linearGradient>
<linearGradient id="paint9_linear_11_16" x1="30.9875" y1="3.25793" x2="30.9875" y2="36.5336" gradientUnits="userSpaceOnUse">
<stop stop-color="#00FFFF"/>
<stop offset="1" stop-color="#00FFFF"/>
</linearGradient>
<linearGradient id="paint10_linear_11_16" x1="34.3038" y1="3.25814" x2="34.3038" y2="36.5338" gradientUnits="userSpaceOnUse">
<stop stop-color="#00FFFF"/>
<stop offset="1" stop-color="#00FFFF"/>
</linearGradient>
<linearGradient id="paint11_linear_11_16" x1="26.0006" y1="3.25815" x2="26.0006" y2="36.5338" gradientUnits="userSpaceOnUse">
<stop stop-color="#00FFFF"/>
<stop offset="1" stop-color="#00FFFF"/>
</linearGradient>
<linearGradient id="paint12_linear_11_16" x1="20" y1="3.25733" x2="20" y2="36.5329" gradientUnits="userSpaceOnUse">
<stop stop-color="#00FFFF"/>
<stop offset="1" stop-color="#00FFFF"/>
</linearGradient>
<linearGradient id="paint13_linear_11_16" x1="4.47123" y1="3.25834" x2="4.47123" y2="36.534" gradientUnits="userSpaceOnUse">
<stop stop-color="#00FFFF"/>
<stop offset="1" stop-color="#00FFFF"/>
</linearGradient>
<linearGradient id="paint14_linear_11_16" x1="5.70065" y1="3.25822" x2="5.70065" y2="36.5339" gradientUnits="userSpaceOnUse">
<stop stop-color="#00FFFF"/>
<stop offset="1" stop-color="#00FFFF"/>
</linearGradient>
<linearGradient id="paint15_linear_11_16" x1="9.01623" y1="3.25832" x2="9.01623" y2="36.5339" gradientUnits="userSpaceOnUse">
<stop stop-color="#00FFFF"/>
<stop offset="1" stop-color="#00FFFF"/>
</linearGradient>
<linearGradient id="paint16_linear_11_16" x1="14.0025" y1="3.25836" x2="14.0025" y2="36.534" gradientUnits="userSpaceOnUse">
<stop stop-color="#00FFFF"/>
<stop offset="1" stop-color="#00FFFF"/>
</linearGradient>
</defs>
</svg>
