<svg width="40" height="40" viewBox="0 0 40 40" fill="none" xmlns="http://www.w3.org/2000/svg">
<path d="M13.7544 22.0315L24.3888 15.6252L16.8819 23.4377L23.4663 28.6096C24.6456 29.1284 25.075 28.0477 25.075 28.0477L28.0906 12.7346C28.0906 12.7346 28.1419 12.344 28.1188 12.2659C27.9038 11.5359 26.7269 12.0634 26.7269 12.0634L9.50376 18.8677C9.50376 18.8677 8.68876 19.1484 8.75313 19.6665C8.81751 20.1852 9.48251 20.4221 9.48251 20.4221L13.7556 22.0315" fill="url(#paint0_linear_7_12)"/>
<path d="M28.7182 12.0894C28.5744 11.5994 28.1813 11.2963 27.6388 11.2581C27.5294 11.25 26.9144 11.275 26.4994 11.4863L26.4975 11.4819L9.30065 18.2769C8.74753 18.4669 8.13753 18.9163 8.12503 19.5813C8.12378 19.6338 8.1269 19.6881 8.13378 19.7438C8.2419 20.6188 9.16753 20.9738 9.26315 21.0069L13.2488 22.5081C13.555 23.4925 14.5663 26.7419 14.7838 27.4369C14.93 27.9019 15.1713 28.505 15.6132 28.67C15.7407 28.7225 15.8763 28.75 16.0175 28.75C16.4013 28.75 16.6513 28.555 16.7444 28.4706L19.1838 26.0394L23.0807 29.1C23.1213 29.1325 23.1669 29.16 23.215 29.1806C23.5382 29.3231 23.825 29.3744 24.0694 29.3744C24.325 29.3744 24.535 29.3188 24.6931 29.2538C25.36 28.98 25.6269 28.3494 25.6557 28.2781C25.6694 28.2425 25.6807 28.2056 25.6882 28.1681L28.71 12.8156C28.7794 12.2931 28.7419 12.17 28.7182 12.0894ZM14.4969 22.3131L20.6669 18.5963L16.4325 23.0044C16.3575 23.0819 16.315 23.1788 16.2894 23.2806C16.2875 23.2881 15.6606 26.0494 15.6606 26.0494L14.4969 22.3131ZM27.4769 12.6175L24.4775 27.8488C24.4419 27.91 24.3525 28.0431 24.2194 28.0975C24.1075 28.1431 23.9619 28.1319 23.7857 28.0644L17.8113 23.3725L24.8394 16.0575C25.0569 15.8319 25.0732 15.4794 24.8775 15.235C24.6825 14.9906 24.3356 14.9281 24.0669 15.09L13.6913 21.34L9.69815 19.8363C9.57565 19.7894 9.4494 19.6981 9.39753 19.6344C9.46565 19.5744 9.60315 19.4963 9.73315 19.4494L26.9569 12.6438C26.9675 12.64 26.9775 12.635 26.9881 12.6306C27.145 12.5619 27.3569 12.5106 27.49 12.5025C27.4838 12.565 27.4769 12.6175 27.4769 12.6175Z" fill="url(#paint1_linear_7_12)"/>
<path d="M20 36.25C11.0394 36.25 3.75 28.96 3.75 20C3.75 11.04 11.0394 3.75 20 3.75C28.9606 3.75 36.25 11.04 36.25 20C36.25 28.96 28.9606 36.25 20 36.25ZM20 5C11.7294 5 5 11.7294 5 20C5 28.2706 11.7294 35 20 35C28.2706 35 35 28.2706 35 20C35 11.7294 28.2706 5 20 5Z" fill="url(#paint2_linear_7_12)"/>
<defs>
<linearGradient id="paint0_linear_7_12" x1="18.4375" y1="11.879" x2="18.4375" y2="28.7502" gradientUnits="userSpaceOnUse">
<stop stop-color="white"/>
<stop offset="1" stop-color="white" stop-opacity="0.8"/>
</linearGradient>
<linearGradient id="paint1_linear_7_12" x1="18.4375" y1="3.64563" x2="18.4375" y2="36.4138" gradientUnits="userSpaceOnUse">
<stop stop-color="white"/>
<stop offset="1" stop-color="white"/>
</linearGradient>
<linearGradient id="paint2_linear_7_12" x1="20" y1="3.64563" x2="20" y2="36.4137" gradientUnits="userSpaceOnUse">
<stop stop-color="#00FFFF"/>
<stop offset="1" stop-color="#00FFFF"/>
</linearGradient>
</defs>
</svg>
