<svg width="40" height="40" viewBox="0 0 40 40" fill="none" xmlns="http://www.w3.org/2000/svg">
<path d="M35.5562 11.1454C34.9644 9.17939 33.7806 7.62015 32.005 6.53546C29.7855 5.11181 27.2701 4.63726 25.0506 4.36608C22.0173 3.95932 19.2799 3.89153 16.6166 4.1627C14.1751 4.43388 12.3255 4.90843 10.6239 5.58636C7.29468 7.01001 5.37111 9.24718 4.70527 12.2979C4.40933 13.7893 4.18739 15.1452 4.1134 16.3655C3.81747 19.3484 4.1134 21.9245 4.85323 24.365C5.59306 26.7378 6.85078 28.4326 8.77434 29.5173C9.29222 29.7885 9.88409 29.9919 10.476 30.1952C10.8459 30.3308 11.1418 30.3986 11.4377 30.5342C11.7337 30.6698 11.7337 30.6698 11.7337 30.8732C11.7337 32.568 11.7337 35.8221 11.7337 35.8221C11.7337 36.161 12.1036 36.5 12.4735 36.5H12.7694C12.9914 36.5 13.1393 36.4322 13.2873 36.2966C13.4353 36.161 16.8385 33.1781 18.0962 31.9579L18.2442 31.7545C18.4661 31.5511 18.4661 31.5511 18.6881 31.5511C20.3897 31.5511 22.0173 31.4833 23.6449 31.3477C25.6425 31.2799 28.01 31.0766 30.2294 30.1952C32.227 29.4495 33.7066 28.2292 34.5944 26.5344C35.4822 24.8396 36.0741 22.9414 36.2961 20.8398C36.74 17.2468 36.444 14.0605 35.5562 11.1454ZM34.8904 20.8398C34.6684 22.8058 34.2245 24.5006 33.3367 26.0599C32.5969 27.4157 31.4132 28.3648 29.7116 29.0428C27.714 29.7885 25.5685 29.9919 23.6449 30.0597C22.0173 30.1275 20.3897 30.1952 18.6881 30.1952C17.8003 30.1952 17.5043 30.5342 17.1344 30.8732L16.9865 31.0088C16.1727 31.8223 14.3231 33.4493 13.2133 34.4662C13.2133 33.3815 13.2133 31.8223 13.2133 30.8732C13.2133 29.8563 12.5475 29.5173 12.1036 29.2461C11.8076 29.1106 11.4377 28.975 10.9938 28.8394C10.476 28.636 9.88409 28.5004 9.58815 28.297C7.96052 27.3479 6.92476 25.9243 6.25891 23.9583C5.51908 21.7211 5.29713 19.2128 5.59306 16.4333C5.66705 15.213 5.889 13.9249 6.18493 12.4335C6.70281 9.78953 8.33044 7.95912 11.2158 6.73884C12.7694 6.06091 14.471 5.65415 16.7645 5.45077C17.8003 5.31519 18.836 5.24739 19.9458 5.24739C21.4994 5.24739 23.0531 5.38298 24.7547 5.58636C26.9002 5.85753 29.1197 6.33208 31.0433 7.55236C32.5229 8.50146 33.4847 9.78953 34.0026 11.4166C34.9644 14.2639 35.2603 17.3146 34.8904 20.8398Z" fill="url(#paint0_linear_11_34)"/>
<path d="M28.1275 22.2723C27.373 21.7481 26.694 21.224 25.9394 20.6998C24.8077 19.8761 23.6004 19.8013 22.7705 21.1491C22.695 21.224 22.695 21.2988 22.6196 21.3737C22.1669 21.823 21.6387 21.9728 21.1105 21.6732C18.9979 20.7747 17.3379 19.4269 16.3571 17.3303C15.7535 16.1322 15.9044 15.4583 17.0361 14.7095C17.1116 14.6346 17.2625 14.5598 17.3379 14.4849C17.7907 14.0356 17.9416 13.5114 17.6398 12.9873C17.0361 11.6395 16.1307 10.4414 15.0744 9.46799C14.6971 9.0936 14.2444 8.94384 13.7163 9.01872C12.3581 9.31824 11 10.2917 11 12.0887C11.0755 12.3134 11 12.6129 11.1509 12.8375C11.6036 13.9607 11.9809 15.0839 12.509 16.0573C15.2253 21.0742 19.2997 24.5186 24.5059 26.765C25.1095 27.0645 25.7885 27.0645 26.3922 26.8399C27.2221 26.4655 27.9766 25.9413 28.5048 25.1177C29.1839 23.8447 29.2593 23.0959 28.1275 22.2723Z" fill="url(#paint1_linear_11_34)"/>
<path d="M20.3003 8C19.3169 8 18.4091 8.14907 17.5013 8.44721C17.123 8.59627 16.8961 8.96894 17.0474 9.41615C17.1987 9.86335 17.5769 10.0124 18.0308 9.86335C18.7873 9.63975 19.5438 9.49068 20.3003 9.49068C24.2341 9.49068 27.487 12.6957 27.487 16.5714C27.487 17.3913 27.3357 18.2112 27.1088 18.9565C26.9575 19.3292 27.1844 19.7764 27.5627 19.9255C27.6383 19.9255 27.714 20 27.7896 20C28.0922 20 28.3948 19.7764 28.4705 19.4783C28.7731 18.5839 29 17.6149 29 16.646C29 11.8758 25.0662 8 20.3003 8Z" fill="url(#paint2_linear_11_34)"/>
<path d="M24.7882 18.9245C24.8639 18.9245 24.9397 19 25.0154 19C25.3184 19 25.6213 18.7736 25.697 18.4717C25.9243 17.8679 26 17.2642 26 16.6604C26 13.566 23.4249 11 20.3196 11C19.7137 11 19.1078 11.0755 18.5019 11.3019C18.1232 11.4528 17.896 11.8302 18.0474 12.283C18.1989 12.7358 18.5776 12.8868 19.032 12.7358C19.4865 12.5849 19.9409 12.5094 20.3953 12.5094C22.6675 12.5094 24.561 14.3962 24.561 16.6604C24.561 17.1132 24.4852 17.566 24.3338 17.9434C24.1065 18.3962 24.3338 18.7736 24.7882 18.9245Z" fill="url(#paint3_linear_11_34)"/>
<path d="M21.9359 17.9245C22.0119 17.9245 22.0879 18 22.1639 18C22.4679 18 22.772 17.7736 22.848 17.4717C22.924 17.1698 23 16.9434 23 16.6415C23 15.2075 21.7839 14 20.3397 14C20.0357 14 19.7317 14.0755 19.5037 14.1509C19.1236 14.3019 18.8956 14.6792 19.0476 15.1321C19.1996 15.5094 19.5797 15.7358 20.0357 15.5849C20.1877 15.5094 20.2637 15.5094 20.4157 15.5094C21.0238 15.5094 21.5559 16.0377 21.5559 16.6415C21.5559 16.7925 21.5559 16.8679 21.4799 17.0189C21.3278 17.3962 21.4799 17.8491 21.9359 17.9245Z" fill="url(#paint4_linear_11_34)"/>
<defs>
<linearGradient id="paint0_linear_11_34" x1="20.315" y1="4.57963" x2="20.315" y2="33.49" gradientUnits="userSpaceOnUse">
<stop stop-color="#00FFFF"/>
<stop offset="1" stop-color="#00FFFF"/>
</linearGradient>
<linearGradient id="paint1_linear_11_34" x1="20.021" y1="7.76974" x2="20.021" y2="23.8537" gradientUnits="userSpaceOnUse">
<stop stop-color="white"/>
<stop offset="1" stop-color="white"/>
</linearGradient>
<linearGradient id="paint2_linear_11_34" x1="23.0018" y1="9.14186" x2="23.0018" y2="25.1518" gradientUnits="userSpaceOnUse">
<stop stop-color="white"/>
<stop offset="1" stop-color="white"/>
</linearGradient>
<linearGradient id="paint3_linear_11_34" x1="21.9942" y1="9.13736" x2="21.9942" y2="25.3487" gradientUnits="userSpaceOnUse">
<stop stop-color="white"/>
<stop offset="1" stop-color="white"/>
</linearGradient>
<linearGradient id="paint4_linear_11_34" x1="20.9858" y1="9.11849" x2="20.9858" y2="25.3298" gradientUnits="userSpaceOnUse">
<stop stop-color="white"/>
<stop offset="1" stop-color="white"/>
</linearGradient>
</defs>
</svg>
